<svg width="636.1" height="140.4" xmlns="http://www.w3.org/2000/svg" xmlns:svg="http://www.w3.org/2000/svg">
 <style type="text/css">.st0{fill:url(#SVGID_1_);}
	.st1{fill:url(#SVGID_2_);}
	.st2{fill:url(#SVGID_3_);}
	.st3{fill:url(#SVGID_4_);}
	.st4{fill:url(#SVGID_5_);}
	.st5{fill:url(#SVGID_6_);}
	.st6{fill:url(#SVGID_7_);}
	.st7{fill:url(#SVGID_8_);}
	.st8{fill:url(#SVGID_9_);}</style>
 <linearGradient id="SVGID_1_" gradientUnits="userSpaceOnUse" x1="-14.647" y1="54.2922" x2="656.5567" y2="54.2922">
  <stop offset="0.001502" stop-color="#DA8CFF"/>
  <stop offset="1" stop-color="#9A55FF"/>
 </linearGradient>
 <linearGradient id="SVGID_2_" gradientUnits="userSpaceOnUse" x1="-14.647" y1="64.76" x2="656.5567" y2="64.76">
  <stop offset="0.001502" stop-color="#DA8CFF"/>
  <stop offset="1" stop-color="#9A55FF"/>
 </linearGradient>
 <linearGradient id="SVGID_3_" gradientUnits="userSpaceOnUse" x1="-14.647" y1="63.9224" x2="656.5567" y2="63.9224">
  <stop offset="0.001502" stop-color="#DA8CFF"/>
  <stop offset="1" stop-color="#9A55FF"/>
 </linearGradient>
 <linearGradient id="SVGID_4_" gradientUnits="userSpaceOnUse" x1="-14.647" y1="82.4849" x2="656.5567" y2="82.4849">
  <stop offset="0.001502" stop-color="#DA8CFF"/>
  <stop offset="1" stop-color="#9A55FF"/>
 </linearGradient>
 <linearGradient id="SVGID_5_" gradientUnits="userSpaceOnUse" x1="-14.647" y1="51.6404" x2="656.5567" y2="51.6404">
  <stop offset="0.001502" stop-color="#DA8CFF"/>
  <stop offset="1" stop-color="#9A55FF"/>
 </linearGradient>
 <linearGradient id="SVGID_6_" gradientUnits="userSpaceOnUse" x1="-14.647" y1="64.4106" x2="656.5567" y2="64.4106">
  <stop offset="0.001502" stop-color="#DA8CFF"/>
  <stop offset="1" stop-color="#9A55FF"/>
 </linearGradient>
 <g class="layer">
  <title>Layer 1</title>
  <g id="svg_7">
   <g id="svg_8">
    <linearGradient id="SVGID_7_" gradientUnits="userSpaceOnUse" x1="-14.647" y1="33.7483" x2="656.5567" y2="33.7483">
     <stop offset="0.001502" stop-color="#DA8CFF"/>
     <stop offset="1" stop-color="#9A55FF"/>
    </linearGradient>
    <path class="st6" d="m100.2,30l-47.1,-23.5c-1.2,-0.6 -2.5,-0.6 -3.7,0l-47.1,23.5c-1.4,0.7 -2.3,2.2 -2.3,3.7c0,1.6 0.9,3 2.3,3.7l47.1,23.6c0.6,0.3 1.2,0.4 1.9,0.4c0.6,0 1.3,-0.1 1.9,-0.4l47.1,-23.5c1.4,-0.7 2.3,-2.1 2.3,-3.7c-0.1,-1.6 -1,-3.1 -2.4,-3.8zm-49,22.7l-37.8,-19l37.8,-18.9l37.8,18.9l-37.8,19z" id="svg_9"/>
   </g>
  </g>
  <g id="svg_10">
   <g id="svg_11">
    <linearGradient id="SVGID_8_" gradientUnits="userSpaceOnUse" x1="-14.647" y1="92.6076" x2="656.5567" y2="92.6076">
     <stop offset="0.001502" stop-color="#DA8CFF"/>
     <stop offset="1" stop-color="#9A55FF"/>
    </linearGradient>
    <path class="st7" d="m102,79c-1,-2 -3.5,-2.9 -5.6,-1.9l-45.2,22.7l-45.2,-22.7c-2,-1 -4.5,-0.2 -5.6,1.9c-1,2 -0.2,4.5 1.9,5.6l47.1,23.5c0.6,0.3 1.2,0.4 1.9,0.4c0.6,0 1.3,-0.1 1.9,-0.4l47.1,-23.5c1.9,-1.1 2.7,-3.6 1.7,-5.6z" id="svg_12"/>
   </g>
  </g>
  <g id="svg_13">
   <g id="svg_14">
    <linearGradient id="SVGID_9_" gradientUnits="userSpaceOnUse" x1="-14.647" y1="69.0637" x2="656.5567" y2="69.0637">
     <stop offset="0.001502" stop-color="#DA8CFF"/>
     <stop offset="1" stop-color="#9A55FF"/>
    </linearGradient>
    <path class="st8" d="m102,55.4c-1,-2 -3.5,-2.9 -5.6,-1.9l-45.2,22.7l-45.2,-22.6c-2,-1 -4.5,-0.2 -5.6,1.9c-1,2 -0.2,4.5 1.9,5.6l47.1,23.5c0.6,0.3 1.2,0.4 1.9,0.4c0.6,0 1.3,-0.1 1.9,-0.4l47,-23.6c2,-1 2.8,-3.5 1.8,-5.6z" id="svg_15"/>
   </g>
  </g>
  <text fill="#d4aaff" stroke-width="0" stroke-dasharray="null" stroke-linejoin="null" stroke-linecap="null" x="150.779606" y="50.585641" id="svg_19" font-size="24" font-family="Fantasy" text-anchor="middle" xml:space="preserve" transform="matrix(4.574590652899877,0,0,5.467020985141649,-317.12529108492157,-166.74660347096687) ">MEOW BLOG</text>
 </g>
</svg>